<svg xmlns="http://www.w3.org/2000/svg" xmlns:xlink="http://www.w3.org/1999/xlink" viewBox="0 0 575.9 829.85"><defs><style>.cls-1{fill:url(#radial-gradient);}</style><radialGradient id="radial-gradient" cx="287.95" cy="-234.86" r="1063.92" gradientUnits="userSpaceOnUse"><stop offset="0" stop-color="#c3eeff"/><stop offset="0.12" stop-color="#fff"/><stop offset="0.55" stop-color="#00a7b7"/><stop offset="0.8" stop-color="#00728a"/><stop offset="1"/></radialGradient></defs><title>wave</title><g id="Layer_2" data-name="Layer 2"><g id="Layer_1-2" data-name="Layer 1"><path class="cls-1" d="M575.9,829.75V48.15c.1-8-5.7-15.4-13.8-16.3h0C540.6,29.35,520,21.35,504.2,9A38.77,38.77,0,0,0,456,9c-37.9,30.4-107.2,30.4-145.7-1.5-13.5-11.2-33-9.1-46.7,1.8-38,30.1-106.9,30-145.2-1.7-13.5-11.2-33.3-8.9-47.1,2-15.5,12.2-36,20.1-57.7,22.4C5.7,32.75,0,39.75,0,47.65v782.2"/></g></g></svg>