<svg xmlns="http://www.w3.org/2000/svg" xmlns:xlink="http://www.w3.org/1999/xlink" viewBox="0 0 199.49 138.06"><defs><style>.cls-1{fill:url(#linear-gradient);}.cls-2{fill:url(#linear-gradient-2);}</style><linearGradient id="linear-gradient" x1="69.66" y1="426.13" x2="100.3" y2="304.46" gradientTransform="matrix(1, 0, 0, -1, 0, 444.74)" gradientUnits="userSpaceOnUse"><stop offset="0" stop-color="#cbe7f2"/><stop offset="0.29" stop-color="#f1f7fa"/><stop offset="1" stop-color="#628693"/></linearGradient><linearGradient id="linear-gradient-2" x1="78.92" y1="17.87" x2="112.8" y2="152.41" gradientUnits="userSpaceOnUse"><stop offset="0" stop-color="#628693"/><stop offset="0.71" stop-color="#f1f7fa"/><stop offset="1" stop-color="#cbe7f2"/></linearGradient></defs><title>ice</title><g id="Layer_2" data-name="Layer 2"><g id="Layer_1-2" data-name="Layer 1"><g id="Layer_2-2" data-name="Layer 2"><g id="Layer_1-2-2" data-name="Layer 1-2"><path class="cls-1" d="M170.49,50.31l-23.2,48.32L112.5,0,70.32,50.31,50.57,100.25,29.19,62.44,0,138.06H199.49ZM29.89,74.14l17.52,35.21L59.15,122l34.5-33.06,16.78-79,27,88.16,20.88,21.74,11.09-56,22.67,68.61H23.48Z"/><polygon class="cls-2" points="192.07 132.45 23.48 132.45 29.89 74.14 47.41 109.35 59.15 122 93.65 88.94 110.43 9.94 137.43 98.1 158.31 119.84 169.4 63.84 192.07 132.45"/></g></g></g></g></svg>