<svg xmlns="http://www.w3.org/2000/svg" viewBox="0 0 436.6 448.05"><defs><style>.cls-1{fill:#fff;}</style></defs><title>up-arrow</title><g id="Layer_2" data-name="Layer 2"><g id="Layer_1-2" data-name="Layer 1"><path class="cls-1" d="M29.25,257.55l-22.2-22.2a23.9,23.9,0,0,1,0-33.9L201.35,7.05a23.9,23.9,0,0,1,33.9,0l194.3,194.3a23.9,23.9,0,0,1,0,33.9l-22.2,22.2a24,24,0,0,1-34.3-.4l-114.7-120.4v287.4a23.94,23.94,0,0,1-24,24h-32a23.94,23.94,0,0,1-24-24V136.65L63.55,257.15A23.85,23.85,0,0,1,29.25,257.55Z"/></g></g></svg>