<svg xmlns="http://www.w3.org/2000/svg" viewBox="0 0 674.62 35.78"><defs><style>.cls-1{fill:#fff;}</style></defs><title>wave1</title><g id="Layer_2" data-name="Layer 2"><g id="Layer_1-2" data-name="Layer 1"><path class="cls-1" d="M0,7.56c4.06,9,10,16.13,19.37,19.86,12.63,5,23.45,2.39,32.92-8.71,4.11-4.82,7-10.71,10.55-16C63.69,1.48,65.41-.13,66.52,0A7.37,7.37,0,0,1,71,3c3.45,4.95,6.1,10.51,9.94,15.09a39,39,0,0,0,11.24,9.1c9.09,4.86,18.1,2.77,26.62-2.09a32.26,32.26,0,0,0,14-16,4.37,4.37,0,0,1,3.17-2.19,4.88,4.88,0,0,1,3.53,1.79c2.95,3.82,5.14,8.34,8.5,11.72,9.39,9.45,25.09,14.07,37.86,4.16A57.58,57.58,0,0,0,202.3,3.37a6.39,6.39,0,0,1,4.19-3.3c1.2-.14,3.29,1.64,3.86,3,3.44,8.44,9.16,15,16,20.84,7.72,6.59,16.26,7.23,25.47,4.29C260.7,25.4,267,19.51,271.34,11.4c1.07-2,1.38-4.53,4.63-4.59,3.5-.07,3.82,2.7,4.95,4.79C286,21,293.55,26.87,304,29.2c12.34,2.76,21.33-2.78,28.65-11.76,3.47-4.25,5.87-9.36,9-13.9C342.7,2,344.5.19,346.05.1c1.31-.07,3.29,1.91,4,3.44a62.17,62.17,0,0,0,13.16,18.1c11.28,10.67,23.07,10.34,35.64,2.94,5.87-3.46,9.6-8.78,12.68-14.73.69-1.34,2.54-2.84,3.88-2.86a5.43,5.43,0,0,1,4,2.71A34.56,34.56,0,0,0,444,29.44c5.8,1.34,11.62.89,17-2.42,9.16-5.61,15.43-13.56,20-23.13.79-1.64,2.74-3.85,4.11-3.81,1.66,0,4,1.82,4.78,3.46,4.58,9.25,10.25,17.38,19.29,22.93,12.51,7.66,29.59.5,36.78-8.81a48.17,48.17,0,0,0,4.57-7.37c1-1.95,1.72-3.74,4.41-3.69s3.76,1.91,4.76,4a31.66,31.66,0,0,0,12.06,13.8c14.34,8.85,27.77,7,38.73-6.09,4.07-4.84,6.93-10.67,10.52-15.93.77-1.13,2.42-2.52,3.49-2.39a6,6,0,0,1,4.16,2.65c3.74,7.51,8.17,14.41,14.57,20,8.1,7.08,17.05,9,27.19,5.36,1.22-.44,2.48-.79,3.87-1.23.11.74.24,1.24.26,1.75,0,1.18,0,2.37,0,3.47a30,30,0,0,1-35.72-5.74C633.82,21,629.35,15.2,624.36,9.34c-1,1.6-2.22,3.55-3.48,5.48-5.62,8.57-12.54,15.81-22.45,19.17-12.88,4.37-30.09-1.39-38.67-12.46-1.5-1.93-2.92-3.91-4.64-6.2-4.48,6.72-9.45,12.33-16.37,15.67-9.62,4.64-19.65,6.89-29.85,2.16-7.15-3.31-12.55-8.93-17.21-15.21C489.53,15,487.5,12,485.06,8.52c-7.86,13-16.44,25.18-32.7,26.51-16,1.32-28-6.14-36.73-20.13-1,1.37-1.83,2.45-2.58,3.61-8.44,13-28.57,21.79-43.57,14.36-9.25-4.58-15.79-12.06-21.11-20.72-.74-1.21-1.44-2.45-2.4-4.07-2.46,3.7-4.57,7.13-6.94,10.38-5,6.81-11,12.52-19.15,15.26-10.75,3.61-21,1.53-30-4.68-5.3-3.64-9.56-8.79-14.45-13.41-.37.53-1.12,1.71-1.94,2.84-8.59,11.87-20.25,17.8-34.85,16.65-9.81-.77-17.24-6.59-23.28-14-3.19-3.93-6-8.21-9-12.49C203.9,12,201.37,15.47,199,19,193.47,27,186,32.64,176.73,34.7A31.43,31.43,0,0,1,150.57,29c-5.19-3.88-9.68-8.69-14.47-13.08A88.92,88.92,0,0,1,130,23.45c-8.63,8.69-19.08,13.26-31.38,11.67-9.51-1.24-16.92-6.81-23-14-3.16-3.8-5.79-8-8.88-12.4C64.5,12,62.36,15.4,60,18.63,54.79,25.79,48.21,31.5,39.71,34.09c-11.21,3.42-21.6.57-30.85-6.25C5.61,25.45,2.94,22.27,0,19.45Z"/></g></g></svg>