<svg xmlns="http://www.w3.org/2000/svg" viewBox="0 0 675.43 49.46"><defs><style>.cls-1{fill:#fff;}</style></defs><title>wave2</title><g id="Layer_2" data-name="Layer 2"><g id="Layer_1-2" data-name="Layer 1"><path class="cls-1" d="M0,37.17c5.73,1.18,11.51,3.56,17.18,3.33C35,39.77,48,31,55.53,14.71c1.4-3,3-5.16,6.59-5.21s4.57,2.58,5.74,5.11a44.06,44.06,0,0,0,43.25,25.93c8-.54,14.36-4.65,20.18-9.77,8.07-7.09,13.61-16,18-25.62C150.57,2.4,152,0,155.54,0s5,2.41,6.21,5.19a72.4,72.4,0,0,0,17.71,25c14,13.05,29.11,13.37,45.09,4.87,8.89-4.73,14.91-12.34,19.25-21.3,1.14-2.34,2.29-4.31,5.39-4.34,3.33,0,4.92,1.78,6.21,4.52,7.89,16.75,21,25.77,39.62,26.7,8.7.43,15.88-3.14,22.28-8.52a69.31,69.31,0,0,0,19-25.33c.89-2,1.74-4.71,3.39-5.55,3.83-2,7-2,9.22,2.87,5.23,11.64,12.47,21.79,22.76,29.75,16.44,12.74,38.71,5.59,49.07-5.71,4.26-4.66,7.23-10.47,11.1-15.53a9.73,9.73,0,0,1,5-3c2.89-.78,4.51,1.3,5.88,3.58,2.49,4.16,4.54,8.75,7.73,12.3C461.39,37.62,475,43.07,491.25,39.58c8.51-1.83,15.13-7.48,20.3-14.19s9.27-13.94,13.64-21.08c1.47-2.41,2.95-4.27,6-4.26,3.21,0,4.49,2.24,5.62,4.75a76.86,76.86,0,0,0,20.48,27.6c14.78,12.54,33.58,9.24,46.69,0,7-4.91,11.8-11.6,15.24-19.29,1.19-2.64,2.73-3.75,5.71-3.68s4.29,1.35,5.39,3.72c8.59,18.41,22.87,27.86,43.39,27.4a11.14,11.14,0,0,1,1.5.22c.07,1.23.17,2.5.2,3.76s0,2.59,0,4.33c-22.15,1-38.43-8.24-50.47-26.71-2.61,3.23-4.92,6.33-7.49,9.19-8.31,9.25-18.45,14.63-30.91,17a38.9,38.9,0,0,1-27.15-4.18c-8.51-4.69-15.42-11.64-21-19.69-2.54-3.64-4.82-7.45-7.29-11.31C527.28,18.66,524,24.16,519.91,29c-10.44,12.43-22.86,21.41-40.2,19.88a50.39,50.39,0,0,1-24.17-8.21c-7.17-4.77-13-10.27-17.22-17.65-.17-.3-.64-.42-.9-.58-3.41,4-6.52,8.22-10.22,11.85a51.79,51.79,0,0,1-38,15.15c-7.92-.1-15-3.33-21.61-8-9.91-7.07-17.16-16.23-23.09-26.65-.3-.52-1-.84-1.32-1.13-4.48,6.23-8.36,12.86-13.43,18.4C319.49,43.26,307.4,51.13,291.1,48.93c-16.82-2.28-30.35-9.89-39.68-24.36-.55-.86-1.18-1.67-1.69-2.39-3.61,4.25-6.8,8.57-10.56,12.32A45.61,45.61,0,0,1,211.22,48a85.24,85.24,0,0,1-14.73.07c-10.22-.68-17.83-6.79-24.5-13.6-6.18-6.31-11.2-13.74-16.85-20.83l-3,4.73C144.23,30.93,134.7,41.65,120.3,47c-8.36,3.1-16.83,2.6-25.19.48-12.27-3.11-22-10.17-29.66-20.22-1.17-1.55-2.2-3.2-3.41-5C46.32,43.57,26.92,54.74,0,45.89Z"/></g></g></svg>