<svg xmlns="http://www.w3.org/2000/svg" viewBox="0 0 675.31 56.78"><defs><style>.cls-1{fill:#fff;}</style></defs><title>wave3</title><g id="Layer_2" data-name="Layer 2"><g id="Layer_1-2" data-name="Layer 1"><path class="cls-1" d="M0,25.85C3.94,29.75,7.59,34,11.86,37.47,28.09,50.73,45.08,49.8,63.32,39.08c8.72-5.13,15-12.82,19.24-22C84,13.93,85.48,11,89.49,11s5.52,2.81,7,6c9.09,19.79,30.23,32.19,50.93,29.82,8.45-1,15.41-5.36,21.6-10.8A84.88,84.88,0,0,0,191.23,5.11C193.41,0,198-1.52,201.55,1.68A12.76,12.76,0,0,1,204.18,6a88.07,88.07,0,0,0,20.51,28.83c14.68,13.71,31.54,16,49.63,7a51.24,51.24,0,0,0,24.33-25c.27-.59.45-1.37.93-1.72,2-1.46,3.93-3.54,6.17-4,2.76-.54,4.69,1.58,5.87,4.29a51.19,51.19,0,0,0,28,27.67c18.1,7.64,34,4.16,47.91-9.48a83.5,83.5,0,0,0,18.72-26.7,7.46,7.46,0,0,1,1.45-2.77c1.82-1.52,3.87-3.84,5.8-3.81s4.49,2.08,5.69,3.94c4.21,6.52,7.57,13.61,12,20a60.57,60.57,0,0,0,19.72,18c12.9,7.43,25.92,5.7,38.74-.16C500.79,37,508.93,28.6,514.23,17.46A7,7,0,0,1,515.52,15c1.82-1.49,3.88-3.89,5.74-3.81a8.29,8.29,0,0,1,5.91,4c4.47,9.07,10.07,17.25,18.67,22.62,25.62,16,45.64,11,63.19-10.37,5.63-6.85,9.8-14.95,14.21-22.72,1.45-2.55,2.9-4.54,5.75-4.66,3.25-.14,5,2,6.62,4.75,4.77,8,9.21,16.35,14.95,23.63,7.47,9.5,13.9,13.35,24.75,17.84v8.8a49.7,49.7,0,0,1-26.82-15.58C641.4,31.88,635.32,23.27,628.77,15c-2.18,3.42-4.72,7.6-7.47,11.65a76.84,76.84,0,0,1-22,21.84c-16.66,10.7-33.86,9.14-51,1.22-10-4.63-17.84-12-23.92-21.21-.85-1.3-1.79-2.53-2.84-4-3.44,4.42-6.32,8.83-9.9,12.56-10.71,11.16-23.73,17.74-39.36,18.72a11.37,11.37,0,0,0-2.86,1H467c-1.22-.34-2.42-.75-3.65-1-2.71-.54-5.53-.69-8.12-1.55-13.7-4.54-23.57-14.11-32-25.27-3.55-4.68-6.49-9.83-9.92-15.11-.87,1.43-1.51,2.71-2.36,3.83-5.78,7.62-11,15.75-17.58,22.68-8,8.48-17.91,14.59-30,15.33-23.74,1.47-42.11-8.21-55.41-27.8-.76-1.13-1.59-2.21-2.65-3.67-.69,1.08-1,1.6-1.36,2.13-11.21,17.48-26.75,27.91-47.79,29.47a9.17,9.17,0,0,0-2.45,1h-2.38c-3.86-.79-7.83-1.23-11.55-2.43-12.72-4.14-22.35-12.62-30.45-22.9-4.27-5.43-7.93-11.34-12-17.27-.65,1-1.21,2-1.89,2.92-5.83,7.77-11.08,16.08-17.66,23.15-7.93,8.51-17.83,14.68-29.86,15.46-24.18,1.57-42.82-8.32-56.2-28.39-.61-.92-1.28-1.81-2.15-3-.92,1.31-1.53,2.12-2.08,3-6.93,10.84-16.12,19.09-28.05,24C47.14,56.37,34.54,58,21.67,53.53,13.28,50.61,6.61,45,0,39.33Z"/></g></g></svg>