<?xml version="1.0" encoding="utf-8"?>
<!-- Generator: Adobe Illustrator 22.1.0, SVG Export Plug-In . SVG Version: 6.00 Build 0)  -->
<svg version="1.1" id="Layer_1" focusable="false" xmlns="http://www.w3.org/2000/svg" xmlns:xlink="http://www.w3.org/1999/xlink"
	 x="0px" y="0px" viewBox="0 0 384 512" style="enable-background:new 0 0 384 512;" xml:space="preserve">
<style type="text/css">
	.st0{fill:#FFFFFF;}
</style>
<path class="st0" d="M360,0H24C10.7,0,0,10.7,0,24v16c0,13.3,10.7,24,24,24c0,91,51,167.7,120.8,192C75,280.3,24,357,24,448
	c-13.3,0-24,10.7-24,24v16c0,13.3,10.7,24,24,24h336c13.3,0,24-10.7,24-24v-16c0-13.3-10.7-24-24-24c0-91-51-167.7-120.8-192
	C309,231.7,360,155,360,64c13.3,0,24-10.7,24-24V24C384,10.7,373.3,0,360,0z M296,448H88c0-77.5,46.2-144,104-144
	C249.8,304,296,370.5,296,448z"/>
</svg>
